# xmcd
#
# Track frame offsets: 
#        150
#        11837
#        23148
#        33094
#        42860
#        56910
#        66738
#        76014
#        87076
#        98495
#        110938
#        121528
#        131539
#        141200
#        150968
#        160834
#        170734
#        179076
#        189019
#        197713
#        208000
#        218952
#
# Disc length: 3071 seconds
#
# Revision: 3
# Processed by: cddbd v1.5.2PL0 Copyright (c) Steve Scherf et al.
# Submitted via: ExactAudioCopy v1.1
#
DISCID=2c0bfd16
DTITLE=Tennessee Ernie Ford - 8 Classic Albums_CD2
DYEAR=2016
DGENRE=Country
TTITLE0=Sixteen tons 
TTITLE1=River of no return 
TTITLE2=You don't have to be a baby to cry 
TTITLE3=First born
TTITLE4=Give me your word 
TTITLE5=The watermelon song 
TTITLE6=One suit 
TTITLE7=Have you seen her 
TTITLE8=Call me darling, call me sweetheart, call me dear 
TTITLE9=That's all 
TTITLE10=Milk 'em in the mornin' blues 
TTITLE11=Catfish boogie 
TTITLE12=Anticipation blues 
TTITLE13=Country junction
TTITLE14=Shot-gun boogie
TTITLE15=She's my baby 
TTITLE16=Blackberry boogie 
TTITLE17=Kiss me big 
TTITLE18=Ain't nobody's business but my own
TTITLE19=Smokey mountain boogie 
TTITLE20=I ain't a-gonna let it 
TTITLE21=The Lord's lariat 
EXTD=
EXTT0=
EXTT1=
EXTT2=
EXTT3=
EXTT4=
EXTT5=
EXTT6=
EXTT7=
EXTT8=
EXTT9=
EXTT10=
EXTT11=
EXTT12=
EXTT13=
EXTT14=
EXTT15=
EXTT16=
EXTT17=
EXTT18=
EXTT19=
EXTT20=
EXTT21=
PLAYORDER=
